
<svg width="220" height="100" xmlns="http://www.w3.org/2000/svg">
  <!-- Background Circle -->
  <circle cx="43" cy="50" r="40" fill="#FFFFFF" />

  <!-- Music Note Icon -->
  <path d="M66 20v54c-0.8-0.5-1.7-0.8-2.6-1-2.6-0.4-5-1.4-7.2-2.8-2.2-1.3-4.2-3.1-5.8-5.4-1.6-2.3-2.6-5-2.6-8V20h-8v46c0 4.8 2.6 9.3 6.8 11.6 4.1 2.4 8.8 3.8 13.6 3.8 0.7 0 1.4-0.1 2.1-0.2 6.8-1.3 12.7-6.3 15.7-12.8 3.1-6.6 3.9-14.1 2.3-21.1l9-0.8v-8.6h-10z" fill="#121212" />

  <!-- Text -->
  <text x="80" y="60" font-family="Arial, sans-serif" font-size="28" fill="#FFFFFF">SongMania</text>
</svg>
